<svg width="12" height="12" viewBox="0 0 12 12" fill="none" xmlns="http://www.w3.org/2000/svg">
<g clip-path="url(#clip0_108_971)">
<path d="M4.125 1.3125V2.25H7.875V1.3125C7.875 1.20938 7.79063 1.125 7.6875 1.125H4.3125C4.20937 1.125 4.125 1.20938 4.125 1.3125ZM3 2.25V1.3125C3 0.588281 3.58828 0 4.3125 0H7.6875C8.41172 0 9 0.588281 9 1.3125V2.25V3V11.25H3V3V2.25ZM1.5 2.25H2.25V11.25H1.5C0.672656 11.25 0 10.5773 0 9.75V3.75C0 2.92266 0.672656 2.25 1.5 2.25ZM10.5 11.25H9.75V2.25H10.5C11.3273 2.25 12 2.92266 12 3.75V9.75C12 10.5773 11.3273 11.25 10.5 11.25Z" fill="#6B7280"/>
</g>
<defs>
<clipPath id="clip0_108_971">
<rect width="12" height="12" fill="white"/>
</clipPath>
</defs>
</svg>
