<svg width="46" height="46" viewBox="0 0 46 46" fill="none" xmlns="http://www.w3.org/2000/svg">
<rect width="46" height="46" rx="5" fill="#FDE3F0"/>
<path d="M13.2312 25.3861L21.7016 33.4772C22.0531 33.813 22.5172 34 23 34C23.4828 34 23.9469 33.813 24.2984 33.4772L32.7687 25.3861C34.1938 24.0288 35 22.1247 35 20.1343V19.8561C35 16.5036 32.6328 13.645 29.4031 13.0935C27.2656 12.729 25.0906 13.4436 23.5625 15.0072L23 15.5827L22.4375 15.0072C20.9094 13.4436 18.7344 12.729 16.5969 13.0935C13.3672 13.645 11 16.5036 11 19.8561V20.1343C11 22.1247 11.8062 24.0288 13.2312 25.3861Z" fill="#F472B6"/>
</svg>
